<svg xmlns="http://www.w3.org/2000/svg" viewBox="0 0 200 40" fill="white">
  <!-- Handshake icon -->
  <g transform="translate(0,4) scale(0.55)">
    <path d="M29.5 0C13.2 0 0 13.2 0 29.5S13.2 59 29.5 59 59 45.8 59 29.5 45.8 0 29.5 0zm0 53.3C16.4 53.3 5.7 42.6 5.7 29.5S16.4 5.7 29.5 5.7 53.3 16.4 53.3 29.5 42.6 53.3 29.5 53.3zm-4.8-33c-2.1 0-4 .8-5.5 2.1L9.9 30l3.8 4.2 9.1-7.5c.5-.4 1.2-.7 1.9-.7.8 0 1.5.3 2 .8l5.8 5.8c1.5 1.5 3.5 2.3 5.6 2.3 2.1 0 4-.8 5.5-2.1l9.3-7.6-3.8-4.2-9.1 7.5c-.5.4-1.2.7-1.9.7-.8 0-1.5-.3-2-.8l-5.8-5.8c-1.5-1.5-3.5-2.3-5.6-2.3z"/>
  </g>
  <!-- "mercado libre" text -->
  <text x="42" y="27" font-family="Arial, Helvetica, sans-serif" font-size="16" font-weight="700" letter-spacing="-0.5" fill="white">mercado libre</text>
</svg>
